<svg width="44" height="44" viewBox="0 0 44 44" fill="none" xmlns="http://www.w3.org/2000/svg">
<g clip-path="url(#clip0_208_8308)">
<path d="M36 0H8C3.58172 0 0 3.58172 0 8V36C0 40.4183 3.58172 44 8 44H36C40.4183 44 44 40.4183 44 36V8C44 3.58172 40.4183 0 36 0Z" fill="#E60000"/>
<mask id="mask0_208_8308" style="mask-type:luminance" maskUnits="userSpaceOnUse" x="10" y="15" width="24" height="14">
<path d="M12.7095 15.6094H20.3377C22.1443 15.611 23.8941 16.2411 25.2869 17.3917L28.1444 19.7737L32.3952 21.3507C33.3485 21.6803 34 22.5951 34 23.6208V26.4482H32.4516V23.6208C32.4515 23.4419 32.3956 23.2676 32.2918 23.1219C32.188 22.9763 32.0415 22.8665 31.8725 22.808L27.3566 21.1333L24.298 18.5833C23.1834 17.6628 21.7832 17.159 20.3377 17.1581H12.7095V15.6094ZM10.786 19.5553L12.3559 17.9854L13.4507 19.0802L11.8805 20.6497C11.7749 20.755 11.6911 20.8802 11.6341 21.018C11.5771 21.1558 11.548 21.3035 11.5484 21.4527V24.8995H13.2111C13.545 23.7817 14.5815 22.9643 15.8066 22.9643C17.3009 22.9643 18.5161 24.1798 18.5161 25.6742C18.5161 27.1682 17.3009 28.3837 15.8066 28.3837C14.5815 28.3837 13.545 27.566 13.2111 26.4482H10V21.4527C9.99901 21.1001 10.0679 20.7509 10.2029 20.4252C10.3378 20.0995 10.536 19.8038 10.786 19.5553ZM14.6454 25.6742C14.6459 25.982 14.7684 26.2771 14.986 26.4948C15.2037 26.7124 15.4988 26.8349 15.8066 26.8354C16.1144 26.8349 16.4095 26.7124 16.6272 26.4948C16.8448 26.2771 16.9673 25.982 16.9678 25.6742C16.9675 25.3663 16.8451 25.0711 16.6274 24.8533C16.4097 24.6355 16.1145 24.513 15.8066 24.5127C15.4987 24.513 15.2035 24.6355 14.9858 24.8533C14.7681 25.0711 14.6457 25.3663 14.6454 25.6742ZM26.6648 23.7581C26.9157 23.5056 27.2143 23.3054 27.5431 23.1691C27.872 23.0329 28.2246 22.9633 28.5806 22.9643C28.9366 22.9633 29.2892 23.0329 29.6181 23.1691C29.9469 23.3054 30.2454 23.5056 30.4964 23.7581C30.7488 24.0091 30.9489 24.3076 31.0852 24.6365C31.2215 24.9653 31.2913 25.3179 31.2905 25.6738C31.2905 26.3977 31.0081 27.0782 30.4964 27.59C30.2454 27.8425 29.9469 28.0427 29.6181 28.1789C29.2892 28.3152 28.9366 28.3848 28.5806 28.3837C28.2246 28.3848 27.872 28.3152 27.5431 28.1789C27.2143 28.0427 26.9157 27.8425 26.6648 27.59C26.3457 27.2722 26.1114 26.8795 25.9833 26.4478H19.6773V24.8995H25.9833C26.1118 24.4682 26.3461 24.0758 26.6648 23.7581ZM27.7593 26.4951C27.9788 26.7147 28.2799 26.8241 28.5806 26.8241C28.8816 26.8241 29.1824 26.7147 29.4019 26.4951C29.51 26.3875 29.5957 26.2595 29.6541 26.1185C29.7124 25.9775 29.7422 25.8264 29.7418 25.6738C29.7418 25.3636 29.6211 25.0721 29.4019 24.8525C29.2943 24.7444 29.1663 24.6586 29.0253 24.6002C28.8843 24.5418 28.7332 24.5119 28.5806 24.5123C28.2704 24.5123 27.9788 24.633 27.7593 24.8525C27.6511 24.9602 27.5653 25.0881 27.5069 25.2291C27.4485 25.3701 27.4187 25.5213 27.4191 25.6738C27.4191 25.9844 27.5398 26.2756 27.7593 26.4951Z" fill="white"/>
</mask>
<g mask="url(#mask0_208_8308)">
<path fill-rule="evenodd" clip-rule="evenodd" d="M8.23438 30.1474H35.7638V13.8438H8.23438V30.1474Z" fill="white"/>
</g>
</g>
<defs>
<clipPath id="clip0_208_8308">
<rect width="44" height="44" rx="22" fill="white"/>
</clipPath>
</defs>
</svg>
