<svg width="44" height="44" viewBox="0 0 44 44" fill="none" xmlns="http://www.w3.org/2000/svg">
<g clip-path="url(#clip0_208_8315)">
<mask id="mask0_208_8315" style="mask-type:luminance" maskUnits="userSpaceOnUse" x="0" y="0" width="44" height="44">
<path d="M36 0H8C3.58172 0 0 3.58172 0 8V36C0 40.4183 3.58172 44 8 44H36C40.4183 44 44 40.4183 44 36V8C44 3.58172 40.4183 0 36 0Z" fill="white"/>
</mask>
<g mask="url(#mask0_208_8315)">
<mask id="mask1_208_8315" style="mask-type:luminance" maskUnits="userSpaceOnUse" x="0" y="0" width="44" height="44">
<path d="M44 0H0V44H44V0Z" fill="white"/>
</mask>
<g mask="url(#mask1_208_8315)">
<path d="M44 0H0V44H44V0Z" fill="#FF0032"/>
<path d="M27.2178 8.75781V10.202H30.3758V15.9982H32.141V10.202H35.2926V8.75781H27.2178Z" fill="white"/>
<path d="M15.8623 8.75781L13.5515 13.5463L11.2472 8.75781H8.72461V15.9982H10.4962V10.8182L12.7492 15.1959H14.3603L16.6132 10.8182V15.9982H18.3785V8.75781H15.8623Z" fill="white"/>
<path d="M33.5269 32.9014C33.482 33.1902 33.3664 33.4278 33.1802 33.6075C33.0069 33.7744 32.7695 33.8963 32.4742 33.9669C32.1853 34.0311 31.7553 34.0696 31.306 34.0696C30.8374 34.0696 30.4266 34.0119 30.0736 33.89C29.7334 33.7744 29.4638 33.5689 29.2776 33.2865C29.0851 33.0041 28.9887 32.5934 28.9887 32.0606V31.3225C28.9887 30.7961 29.0851 30.3852 29.2776 30.0964C29.4702 29.814 29.7334 29.6086 30.0736 29.4931C30.4202 29.3711 30.8374 29.3134 31.306 29.3134C31.7553 29.3134 32.1853 29.3519 32.4742 29.4161C32.7695 29.4866 33.0069 29.6021 33.1802 29.7754C33.3664 29.9552 33.482 30.1927 33.5269 30.4816H35.292C35.2406 29.8845 35.0418 29.3775 34.6887 28.9668C34.3678 28.5944 33.9184 28.3248 33.36 28.1579C32.8208 27.9975 32.1083 27.9141 31.306 27.9141C30.4587 27.9141 29.7269 28.036 29.1236 28.2735C28.5138 28.5174 28.0388 28.9218 27.7115 29.4803C27.397 30.013 27.2365 30.7319 27.2236 31.6048V31.6883L27.3199 31.6947L27.2236 31.7012V31.7076V31.7846C27.2365 32.6576 27.397 33.3764 27.7115 33.9092C28.0388 34.4676 28.5138 34.872 29.1236 35.116C29.7269 35.3534 30.4587 35.4754 31.306 35.4754C32.1083 35.4754 32.8208 35.392 33.36 35.2314C33.9184 35.0645 34.3613 34.795 34.6887 34.4227C35.0418 34.0183 35.2471 33.5047 35.292 32.9078H33.5269V32.9014Z" fill="white"/>
</g>
</g>
</g>
<defs>
<clipPath id="clip0_208_8315">
<rect width="44" height="44" rx="22" fill="white"/>
</clipPath>
</defs>
</svg>
